<svg xmlns="http://www.w3.org/2000/svg" xmlns:xlink="http://www.w3.org/1999/xlink" viewBox="0 0 595.28 570.93"><defs><style>.cls-1{isolation:isolate;}.cls-2{fill:#432e13;}.cls-3{mix-blend-mode:overlay;fill:url(#GradientFill_3);}.cls-4{fill:url(#GradientFill_4);}.cls-5{fill:#9e7c2f;}.cls-6{mix-blend-mode:multiply;}</style><linearGradient id="GradientFill_3" x1="94.79" y1="187.2" x2="500.52" y2="187.2" gradientUnits="userSpaceOnUse"><stop offset="0" stop-color="#614b34"/><stop offset="1" stop-color="#b1a796"/></linearGradient><linearGradient id="GradientFill_4" x1="517.21" y1="-12.54" x2="158.9" y2="313.43" gradientUnits="userSpaceOnUse"><stop offset="0" stop-color="#a37e56"/><stop offset="1" stop-color="#f3e5ce"/></linearGradient></defs><g class="cls-1"><g id="Layer_1" data-name="Layer 1"><path class="cls-2" d="M104.76,467.09H35.85a1.3,1.3,0,0,0,0,2.59h68.91a1.3,1.3,0,0,0,0-2.59Z"/><path class="cls-2" d="M570.58,467.09H501.66a1.3,1.3,0,0,0,0,2.59h68.92a1.3,1.3,0,0,0,0-2.59Z"/><path class="cls-3" d="M444.24,345h56.28V29.35H355.85L299.23,99.23,238.4,29.35H94.79V345H250.94l.06-84.68,46.66,56.45,48.74-55.63V345h59l-.54-237.43L297.66,229.94,194.3,111.56V301.47h-45V73.75h59.76l88.6,106L390.44,72.1h53.8Z"/><path class="cls-2" d="M443.94,344.22h56.29V28.53H355.55L298.94,98.41,238.11,28.53H94.49V344.22H251.83l-1.13-84.69L297.36,316l48.74-55.63v83.86h59l-.54-237.43L297.36,229.11,194,110.73V300.65H149V72.93h59.76l88.6,106,92.79-107.7h53.79Z"/><path class="cls-4" d="M494.23,34.28V340.11H450.52V67.17H387.1l-1.88,2.18L297.74,170.88,214.33,71.05l-1.88-2.25H143V306.38H200.6V127.49l91.88,105.25,5.17,5.93,5.18-5.93,95.79-109.29.5,216.66H352.69V245.29L341.22,258.4,297.81,308l-41.53-50.26-11.37-13.78-.2,16.4v79.8H101.06V34.28h134L294,102l5.39,6.18,5.11-6.31,54.76-67.6H494.23m6.29-4.93H355.85L299.23,99.23,238.4,29.35H94.79V345H250.94l.06-84.68,46.66,56.45,48.74-55.63V345h59l-.54-237.43L297.66,229.94,194.3,111.56V301.47h-45V73.75h59.76l88.6,106L390.44,72.1h53.8V345h56.28V29.35Z"/><path class="cls-5" d="M494.23,34.28V340.11H450.52V67.17H387.1l-1.88,2.18L297.74,170.88,214.33,71.05l-1.88-2.25H143V306.38H200.6V127.49l91.88,105.25,5.17,5.93,5.18-5.93,95.79-109.29.5,216.66H352.69V245.29L341.22,258.4,297.81,308l-41.53-50.26-11.37-13.78-.2,16.4-.1,79.8H101.06V34.28h134L294,102l5.39,6.18,5.11-6.31,54.76-67.6H494.23m6.29-4.93H355.85L299.23,99.23,238.4,29.35H94.79V345h157L251,260.36l46.66,56.45,48.74-55.63V345h59l-.54-237.43L297.66,229.94,194.3,111.56V301.47h-45V73.75h59.76l88.6,106L390.44,72.1h53.8V345h56.28V29.35Z"/><g class="cls-6"><path class="cls-2" d="M131.94,427.93H118.38v-1.85H121V377.14l-5.86,50.79h-6.68l-6.88-50.79v48.94h2.6v1.85h-7.8v-1.85H99V358h-2.6V356.1h11.06l7.19,55.95,6.27-55.95h11.06V358h-2.6v68.12h2.6Z"/><path class="cls-2" d="M161.1,427.93H150.35v-1.45a8.76,8.76,0,0,1-5.87,1.95q-8.67,0-8.66-9.41V407.19q0-9.92,12-9.91h2.5V380.05q0-4.11-3.06-4.11t-3,4.11v10.87h-8.16v-6.37a9.93,9.93,0,0,1,3-7.61,13,13,0,0,1,16.28,0,10,10,0,0,1,3,7.61v41.53h2.65Zm-10.75-3.3v-25.5H148q-4,0-4,4.06v19.28q0,3.91,2.81,3.91A5.21,5.21,0,0,0,150.35,424.63Z"/><path class="cls-2" d="M190,376.44h-2.6v55.9a9.93,9.93,0,0,1-3.16,7.44,11.39,11.39,0,0,1-8.21,3,12.08,12.08,0,0,1-8.24-3.08,9.56,9.56,0,0,1-3.49-7.39v-1.85h8.16v6.36q0,4.11,3.57,4.11,3.21,0,3.21-4.11V425.48a9.05,9.05,0,0,1-6.07,1.95q-8.87,0-8.87-9.47V383.5q0-9.4,8.87-9.41a9.05,9.05,0,0,1,6.07,2v-1.45H190Zm-10.76,47.18V377.89a5.35,5.35,0,0,0-3.77-1.75q-3,0-3,3.91v41.42q0,3.91,3,3.91A5.36,5.36,0,0,0,179.25,423.62Z"/><path class="cls-2" d="M205.55,427.93H192.2v-1.85h2.6V376.44h-2.6v-1.85H203v51.49h2.6Zm-2.6-59.5H194.8V356.1H203Z"/><path class="cls-2" d="M232.88,418a9.68,9.68,0,0,1-3.34,7.44,13.3,13.3,0,0,1-16.9,0,9.63,9.63,0,0,1-3.36-7.44V384.55a9.63,9.63,0,0,1,3.36-7.43,13.3,13.3,0,0,1,16.9,0,9.67,9.67,0,0,1,3.34,7.43v6.37h-8.16V380.05q0-4.11-3.62-4.11c-2.44,0-3.67,1.37-3.67,4.11v42.42c0,2.74,1.23,4.11,3.67,4.11s3.62-1.37,3.62-4.11V411.6h8.16Z"/><path class="cls-2" d="M262.75,427.93H252v-1.45a8.71,8.71,0,0,1-5.86,1.95q-8.67,0-8.66-9.41V407.19q0-9.92,12-9.91H252V380.05c0-2.74-1-4.11-3.05-4.11s-3,1.37-3,4.11v10.87h-8.16v-6.37a10,10,0,0,1,3-7.61,13.06,13.06,0,0,1,16.29,0,10,10,0,0,1,3,7.61v41.53h2.65ZM252,424.63v-25.5H249.6q-4,0-4,4.06v19.28q0,3.91,2.81,3.91A5.19,5.19,0,0,0,252,424.63Z"/><path class="cls-2" d="M277.79,427.93H264.43v-1.85H267V358h-2.6V356.1h10.71v70h2.65Z"/><path class="cls-2" d="M331.72,427.93H318.16v-1.85h2.6V377.14l-5.86,50.79h-6.68l-6.88-50.79v48.94h2.6v1.85h-7.8v-1.85h2.6V358h-2.6V356.1H307.2l7.19,55.95,6.27-55.95h11.06V358h-2.6v68.12h2.6Z"/><path class="cls-2" d="M359.51,418a9.68,9.68,0,0,1-3.34,7.44,13.3,13.3,0,0,1-16.9,0A9.64,9.64,0,0,1,335.9,418V384.55a9.64,9.64,0,0,1,3.37-7.43,13.3,13.3,0,0,1,16.9,0,9.67,9.67,0,0,1,3.34,7.43Zm-8.16,4.51V380.05q0-4.11-3.62-4.11t-3.67,4.11v42.42q0,4.11,3.67,4.11T351.35,422.47Z"/><path class="cls-2" d="M406.35,427.93H395.6V380.05c0-2.61-1-3.91-3-3.91a6.66,6.66,0,0,0-4.69,2.45,11.82,11.82,0,0,1,.92,4.91v42.58h2.6v1.85H380.71V380.05q0-3.92-3.06-3.91a5.35,5.35,0,0,0-3.77,1.75v48.19h2.65v1.85H363.12v-1.85h2.66V376.44h-2.66v-1.85h10.76V376a9.05,9.05,0,0,1,6.07-2c3.36,0,5.77,1,7.24,3.05a10.53,10.53,0,0,1,7.69-3.05q8.88,0,8.87,9.41v42.58h2.6Z"/><path class="cls-2" d="M433.12,418a9.68,9.68,0,0,1-3.34,7.44,13.3,13.3,0,0,1-16.9,0,9.64,9.64,0,0,1-3.37-7.44V384.55a9.64,9.64,0,0,1,3.37-7.43,13.3,13.3,0,0,1,16.9,0,9.67,9.67,0,0,1,3.34,7.43v17.54H417.67v20.38q0,4.11,3.67,4.11t3.62-4.11V411.6h8.16ZM425,400.23V380.05q0-4.11-3.62-4.11t-3.67,4.11v20.18Z"/><path class="cls-2" d="M465,427.93H454.32V380.05q0-3.92-3.05-3.91a5.35,5.35,0,0,0-3.78,1.75v48.19h2.65v1.85h-13.4v-1.85h2.65V376.44h-2.65v-1.85h10.75V376a9.05,9.05,0,0,1,6.07-2q8.87,0,8.87,9.41v42.58H465Z"/><path class="cls-2" d="M483.43,427.93h-2.6a12,12,0,0,1-8.43-3.05,9.68,9.68,0,0,1-3.34-7.42v-41h-2.65v-1.85h2.65V359.71l8.1-3.61v18.49H483v1.85h-5.87V422c0,2.74,1.23,4.11,3.67,4.11h2.6Z"/><path class="cls-2" d="M509.43,418a10,10,0,0,1-3,7.42,12.73,12.73,0,0,1-16.51,0A9.83,9.83,0,0,1,486.7,418V411.6h8.15v10.87q0,4.11,3.32,4.11c2.1,0,3.16-1.37,3.16-4.11v-7.86c0-3.31-1-5.88-2.86-7.71l-8.56-8.32q-3.21-3.1-3.21-9.12v-4.91a10,10,0,0,1,3.1-7.46,12.6,12.6,0,0,1,16.32,0,10,10,0,0,1,3.11,7.46v6.37h-8.11V380.05q0-4.11-3.16-4.11t-3.11,4.11v7.06q0,5,2.81,7.66l8.56,8.32q3.21,3.15,3.21,9.16Z"/></g><path class="cls-5" d="M166.37,451.23l-1.6,19.18a21.4,21.4,0,0,1-1,5.12A10.78,10.78,0,0,1,161.9,479a12.78,12.78,0,0,1-1.8,1.75A8.11,8.11,0,0,1,158,482a11.35,11.35,0,0,1-2.63.67,24.73,24.73,0,0,1-3.43.21h-.32c-.58,0-1.18,0-1.79,0a17.24,17.24,0,0,1-1.8-.15,12.63,12.63,0,0,1-1.69-.34,6.6,6.6,0,0,1-1.48-.63,8.31,8.31,0,0,1-3.14-3.12,15.25,15.25,0,0,1-1.6-6.36l-1.76-21ZM161,456.51H143.89l1.1,14.83a12.48,12.48,0,0,0,.63,3.34,4.41,4.41,0,0,0,1.35,2,4.66,4.66,0,0,0,2.12.92,16.67,16.67,0,0,0,2.93.23h.66q3.67,0,5.33-1.55c1.12-1,1.77-2.89,2-5.65Z"/><path class="cls-5" d="M199.63,470.46c0,.62,0,1.16,0,1.63a12.25,12.25,0,0,1-.16,1.49,10.29,10.29,0,0,1-1.79,5.27,8.82,8.82,0,0,1-3.75,2.9,8.33,8.33,0,0,1-1.76.51c-.36.07-.75.12-1.17.16s-.87.09-1.33.16a11.31,11.31,0,0,1-1.48.13c-.58,0-1.17,0-1.79,0s-1.21,0-1.79,0-1.1,0-1.55,0c-.8,0-1.61,0-2.43-.05l-2.55-.09a36.24,36.24,0,0,1-4.13-.4V451.23h5v26.23h10.2a9.53,9.53,0,0,0,2.26-.22,5.1,5.1,0,0,0,1.74-.81,3.12,3.12,0,0,0,1.3-1.92c.12-.71.23-1.42.32-2.13,0-.27,0-.51,0-.72s0-.43,0-.65V456.08h-2l-5,10.2h-4.58v-.77l7-14.28h9.34v19.23Z"/><path class="cls-5" d="M220.43,482.42H206.08l.77-5.2h8.6V459.83a4.09,4.09,0,0,0-.61-2.61,3.26,3.26,0,0,0-2.48-.71h-4.82l.51-5.28c.76-.09,1.46-.14,2.08-.16s1.3,0,2.05,0a22.55,22.55,0,0,1,3.17.2,6.42,6.42,0,0,1,2.5.83,4.61,4.61,0,0,1,1.12,1,5.4,5.4,0,0,1,.8,1.4,9,9,0,0,1,.49,1.88,14.86,14.86,0,0,1,.17,2.45Z"/><path class="cls-5" d="M254.84,482.42H239.9l.83-5.2h9.21v-16a7.28,7.28,0,0,0-.4-2.58A3.26,3.26,0,0,0,248,456.9a2.29,2.29,0,0,0-.7-.26c-.31-.07-.67-.13-1.07-.19s-.83-.09-1.29-.12-.93,0-1.41,0h-.64l-.93,0a7.71,7.71,0,0,0-1.81.08l-2.53.32a3.71,3.71,0,0,0-2.11,1.19l-2,24.56h-4.95l1.91-22.59L227.3,452v-.75h5.46l2.14,4.64h.42l2.56-4.05a4.84,4.84,0,0,1,1.24-.43c.48-.1,1-.19,1.54-.27s1.08-.11,1.61-.14,1,0,1.44,0c1.17,0,2.17,0,3,.11s1.59.16,2.32.29a7.43,7.43,0,0,1,2.86,1.08,5.6,5.6,0,0,1,1.79,1.9,8.44,8.44,0,0,1,.92,2.66,20.47,20.47,0,0,1,.26,3.36Z"/><path class="cls-5" d="M271.57,482.42h-4.85v-26h-5.83l.53-5.22h10.15Z"/><path class="cls-5" d="M305.87,482.42H290.93l.82-5.2H301v-16a7.28,7.28,0,0,0-.4-2.58,3.3,3.3,0,0,0-1.52-1.71,2.29,2.29,0,0,0-.7-.26c-.31-.07-.67-.13-1.07-.19s-.83-.09-1.29-.12-.93,0-1.41,0h-.64l-.93,0a7.8,7.8,0,0,0-1.82.08l-2.53.32a3.72,3.72,0,0,0-2.1,1.19l-2,24.56h-5l1.92-22.59L278.33,452v-.75h5.46l2.13,4.64h.43l2.55-4.05a5,5,0,0,1,1.24-.43c.49-.1,1-.19,1.55-.27s1.08-.11,1.61-.14,1,0,1.44,0c1.17,0,2.16,0,3,.11s1.59.16,2.32.29a7.49,7.49,0,0,1,2.86,1.08,5.57,5.57,0,0,1,1.78,1.9,8.2,8.2,0,0,1,.92,2.66,19.38,19.38,0,0,1,.27,3.36Z"/><path class="cls-5" d="M352.26,451.23l-1.41,18c-.07.58-.11,1.08-.13,1.48a13.26,13.26,0,0,1-.14,1.37,12.43,12.43,0,0,1-.7,2.81,12.81,12.81,0,0,1-1.35,2.63,11.53,11.53,0,0,1-1.94,2.24,9,9,0,0,1-2.5,1.59,18.94,18.94,0,0,1-2,.65,17.32,17.32,0,0,1-2.35.44l-1.2.13a14.49,14.49,0,0,1-1.67.08l-1.9,0a15,15,0,0,1-1.67-.14l1.09-5.11h3.38c.37,0,.83,0,1.37-.06a10.4,10.4,0,0,0,1.64-.22,10.93,10.93,0,0,0,1.6-.48,3.77,3.77,0,0,0,1.25-.79,5.91,5.91,0,0,0,1.18-1.47,7.76,7.76,0,0,0,.68-1.59,9.91,9.91,0,0,0,.34-1.6c.06-.53.11-1,.14-1.54l1-13.16H329.41v-13h4.85v7.8Z"/><path class="cls-5" d="M385.07,455l-6.6,27.38h-4.85l6.31-25.91H359l.53-5.28h25.59ZM365,493.29H360.3V464.42H365Z"/><path class="cls-5" d="M400.52,467h-4.79V456.45h-5.52l.54-5.22h9.77Z"/><path class="cls-5" d="M411.78,448.33a19.67,19.67,0,0,1-.16,2.44,17.18,17.18,0,0,1-.42,2.35l-2.13,8.37h-2.19V448.22h4.9Z"/><path class="cls-5" d="M436.15,482.42H431l-2.58-13.53h-.75L422,482.42h-5.4l6.66-15.66h4.9L427,460.45c-.07-.29-.13-.53-.17-.74s-.09-.4-.12-.59-.08-.41-.12-.64-.1-.53-.17-.88a1.43,1.43,0,0,0-.59-.92,2.45,2.45,0,0,0-1.17-.23H420l.61-5.11,2-.2q.93-.09,1.86-.09h.79l.71,0,.72.07c.24,0,.53.06.85.12a5.11,5.11,0,0,1,1.64.4,2.66,2.66,0,0,1,1,.83,4.45,4.45,0,0,1,.64,1.35,18.39,18.39,0,0,1,.45,1.94Z"/><path class="cls-5" d="M468.27,482.42H453.33l.83-5.2h9.21v-16a7.28,7.28,0,0,0-.4-2.58,3.26,3.26,0,0,0-1.52-1.71,2.29,2.29,0,0,0-.7-.26c-.31-.07-.67-.13-1.07-.19s-.83-.09-1.29-.12-.93,0-1.41,0h-.64l-.93,0a7.71,7.71,0,0,0-1.81.08l-2.53.32a3.71,3.71,0,0,0-2.11,1.19l-2,24.56H442l1.91-22.59L440.73,452v-.75h5.46l2.13,4.64h.43l2.56-4.05a4.9,4.9,0,0,1,1.23-.43c.49-.1,1-.19,1.55-.27s1.08-.11,1.61-.14,1,0,1.44,0c1.17,0,2.16,0,3,.11s1.59.16,2.32.29a7.43,7.43,0,0,1,2.86,1.08,5.6,5.6,0,0,1,1.79,1.9A8.19,8.19,0,0,1,468,457a19.38,19.38,0,0,1,.27,3.36Z"/><path class="cls-2" d="M269.35,504.17A25.67,25.67,0,0,0,255,508.46a20.5,20.5,0,0,0-5.61,28.39,16.59,16.59,0,0,0,23,4.52,13.5,13.5,0,0,0,3.7-18.7,11,11,0,0,0-15.29-3,9,9,0,0,0-2.47,12.53,1.11,1.11,0,0,0,1.55.3,1.08,1.08,0,0,0,.3-1.52,6.83,6.83,0,0,1,1.87-9.46,8.79,8.79,0,0,1,12.19,2.41,11.28,11.28,0,0,1-3.09,15.63,14.38,14.38,0,0,1-19.93-3.94,18.26,18.26,0,0,1,5-25.29c10.7-7.17,25.74-4.26,32.85,6.36a1.14,1.14,0,0,0,1.55.31,1.12,1.12,0,0,0,.3-1.54A26,26,0,0,0,269.35,504.17Z"/><path class="cls-2" d="M217.75,497.78a10.54,10.54,0,0,0-2.23.22,11.31,11.31,0,0,0-7.31,4.86,14,14,0,0,0,3.85,19.46c7.92,5.33,22.68-1.81,30.78-6.54,10.17-5.95,23.22-12.25,33.81-8.1a1.12,1.12,0,0,0,.81-2.08c-11.48-4.48-25.13,2-35.75,8.26-6.16,3.59-21.24,11.44-28.41,6.63a11.8,11.8,0,0,1-3.23-16.4,9.07,9.07,0,0,1,5.87-3.91,9.16,9.16,0,0,1,6.94,1.38,7.15,7.15,0,0,1,2,9.93,1.12,1.12,0,1,0,1.86,1.25,9.4,9.4,0,0,0-2.57-13A11.44,11.44,0,0,0,217.75,497.78Z"/><path class="cls-2" d="M287.48,524.58a10.91,10.91,0,0,0-2,.19c-6.27,1.25-10.34,7.27-9.7,14.33,1,10.55,12,17.65,27.39,17.65a1.12,1.12,0,0,0,0-2.24c-14,0-24.33-6.42-25.17-15.61-.56-6,2.7-10.93,7.91-11.95a7.86,7.86,0,0,1,9.2,6.17,6.06,6.06,0,0,1-4.76,7.09,4.61,4.61,0,0,1-5.42-3.62,1.1,1.1,0,0,0-1.31-.87,1.12,1.12,0,0,0-.88,1.31,6.86,6.86,0,0,0,8,5.37,8.28,8.28,0,0,0,6.5-9.71A10.06,10.06,0,0,0,287.48,524.58Z"/><path class="cls-2" d="M297.22,497.92a8.86,8.86,0,0,0-1.78.16,11.25,11.25,0,0,0-8.85,13.19c1.38,7,8.7,11.84,17.77,11.84a1.11,1.11,0,0,0,0-2.22c-8,0-14.42-4.13-15.58-10a9,9,0,0,1,7.08-10.58,7,7,0,0,1,8.21,5.5,5.39,5.39,0,0,1-4.23,6.3,4.06,4.06,0,0,1-4.77-3.21,1.12,1.12,0,0,0-2.19.43,6.33,6.33,0,0,0,7.39,5,7.61,7.61,0,0,0,6-8.92A9.21,9.21,0,0,0,297.22,497.92Z"/><path class="cls-2" d="M218.56,497.66a12.5,12.5,0,0,0-1.82.14A1.1,1.1,0,1,0,217,500c6.69-.86,11.52,4.19,13.58,6.33.3.34.54.58.72.75,3.89,3.58,8.52,4.47,11.78,2.27a6.5,6.5,0,0,0,1.78-9,5.41,5.41,0,0,0-7.52-1.48,4.55,4.55,0,0,0-1.24,6.32,3.87,3.87,0,0,0,5.36,1.07,1.11,1.11,0,0,0,.3-1.55,1.12,1.12,0,0,0-1.54-.3,1.64,1.64,0,0,1-2.28-.45,2.33,2.33,0,0,1-.36-1.76,2.38,2.38,0,0,1,1-1.48,3.18,3.18,0,0,1,4.43.88,4.26,4.26,0,0,1-1.16,5.92c-2.9,1.94-6.69.11-9-2.05-.16-.15-.38-.37-.63-.64C230.29,502.78,225.42,497.66,218.56,497.66Z"/><path class="cls-2" d="M337.07,504.17a26,26,0,0,0-21.61,11.27,1.11,1.11,0,0,0,.3,1.54,1.15,1.15,0,0,0,1.55-.31c7.11-10.62,22.15-13.52,32.85-6.36a18.26,18.26,0,0,1,5,25.29,14.36,14.36,0,0,1-19.92,3.94,11.27,11.27,0,0,1-3.1-15.63,8.75,8.75,0,0,1,5.61-3.73,8.67,8.67,0,0,1,6.59,1.32,6.71,6.71,0,0,1,2.89,4.34,6.81,6.81,0,0,1-1,5.12,1.07,1.07,0,0,0,.29,1.52,1.11,1.11,0,0,0,1.55-.3,9.06,9.06,0,0,0-2.48-12.54,11,11,0,0,0-15.28,3,13.47,13.47,0,0,0,3.71,18.7,16.58,16.58,0,0,0,23-4.52,20.51,20.51,0,0,0-5.6-28.39A25.7,25.7,0,0,0,337.07,504.17Z"/><path class="cls-2" d="M388.67,497.78a11.35,11.35,0,0,0-6.35,1.94,9.39,9.39,0,0,0-2.58,13,1.12,1.12,0,1,0,1.85-1.25,7.15,7.15,0,0,1,2-9.93,9.24,9.24,0,0,1,12.8,2.53,11.83,11.83,0,0,1-3.23,16.4c-7.18,4.81-22.26-3-28.41-6.63-10.63-6.21-24.28-12.74-35.75-8.26a1.1,1.1,0,0,0-.63,1.43,1.12,1.12,0,0,0,1.44.65c10.59-4.15,23.63,2.15,33.81,8.1,8.11,4.73,22.86,11.86,30.79,6.54a14,14,0,0,0,3.83-19.46,11.27,11.27,0,0,0-7.29-4.86A10.86,10.86,0,0,0,388.67,497.78Z"/><path class="cls-2" d="M319,524.58a10.06,10.06,0,0,0-9.86,8.11,8.27,8.27,0,0,0,6.5,9.71,6.85,6.85,0,0,0,8-5.37,1.1,1.1,0,0,0-.88-1.31,1.11,1.11,0,0,0-1.31.87,4.6,4.6,0,0,1-5.42,3.62,6,6,0,0,1-4.74-7.09,7.84,7.84,0,0,1,9.2-6.17c5.21,1,8.45,6,7.89,11.95-.83,9.19-11.17,15.61-25.15,15.61a1.12,1.12,0,1,0,0,2.24c15.4,0,26.42-7.1,27.39-17.65.63-7.06-3.44-13.08-9.7-14.33A10.91,10.91,0,0,0,319,524.58Z"/><path class="cls-2" d="M309.21,497.92a9.23,9.23,0,0,0-9,7.42,7.62,7.62,0,0,0,6,8.92,6.32,6.32,0,0,0,7.39-5,1.13,1.13,0,0,0-.87-1.31,1.12,1.12,0,0,0-1.31.88,4.09,4.09,0,0,1-4.79,3.21,5.37,5.37,0,0,1-4.21-6.3,7,7,0,0,1,8.2-5.5,9,9,0,0,1,7.09,10.58c-1.18,5.91-7.59,10-15.6,10a1.11,1.11,0,0,0,0,2.22c9.09,0,16.4-4.87,17.78-11.84A11.26,11.26,0,0,0,311,498.08,9.16,9.16,0,0,0,309.21,497.92Z"/><path class="cls-2" d="M387.86,497.66c-6.85,0-11.72,5.12-13.65,7.13l-.63.64c-2.35,2.16-6.12,4-9,2.05a4.25,4.25,0,0,1-1.17-5.92,3.17,3.17,0,0,1,4.43-.88,2.34,2.34,0,0,1,.64,3.24,1.65,1.65,0,0,1-2.29.45,1.12,1.12,0,0,0-1.54.3,1.11,1.11,0,0,0,.31,1.55,3.88,3.88,0,0,0,5.37-1.07,4.51,4.51,0,0,0,.68-3.43,4.45,4.45,0,0,0-1.93-2.89,5.41,5.41,0,0,0-7.52,1.48,6.5,6.5,0,0,0,1.78,9c3.26,2.2,7.89,1.31,11.77-2.27.18-.17.43-.41.73-.75,2.06-2.14,6.87-7.19,13.58-6.33a1.11,1.11,0,0,0,1.25-1,1.09,1.09,0,0,0-1-1.22A12.64,12.64,0,0,0,387.86,497.66Z"/><path class="cls-2" d="M126.4,467.09a4.94,4.94,0,1,1-4.94-4.95A4.94,4.94,0,0,1,126.4,467.09Z"/><path class="cls-2" d="M489.92,467.09a4.95,4.95,0,1,1-4.95-4.95A4.94,4.94,0,0,1,489.92,467.09Z"/></g></g></svg>