<svg width="33" height="32" viewBox="0 0 33 32" fill="none" xmlns="http://www.w3.org/2000/svg">
<g id="vuesax/linear/shopping-cart">
<g id="shopping-cart">
<path id="Vector" d="M3.16666 2.66666H5.48666C6.92666 2.66666 8.05999 3.90666 7.93999 5.33332L6.83332 18.6133C6.64666 20.7866 8.36665 22.6533 10.5533 22.6533H24.7533C26.6733 22.6533 28.3533 21.08 28.5 19.1733L29.22 9.17333C29.38 6.96 27.7 5.15998 25.4733 5.15998H8.26" stroke="#9E581C" stroke-width="1.5" stroke-miterlimit="10" stroke-linecap="round" stroke-linejoin="round"/>
<path id="Vector_2" d="M22.1667 29.3333C23.0871 29.3333 23.8333 28.5871 23.8333 27.6667C23.8333 26.7462 23.0871 26 22.1667 26C21.2462 26 20.5 26.7462 20.5 27.6667C20.5 28.5871 21.2462 29.3333 22.1667 29.3333Z" stroke="#9E581C" stroke-width="1.5" stroke-miterlimit="10" stroke-linecap="round" stroke-linejoin="round"/>
<path id="Vector_3" d="M11.5 29.3333C12.4205 29.3333 13.1667 28.5871 13.1667 27.6667C13.1667 26.7462 12.4205 26 11.5 26C10.5795 26 9.83334 26.7462 9.83334 27.6667C9.83334 28.5871 10.5795 29.3333 11.5 29.3333Z" stroke="#9E581C" stroke-width="1.5" stroke-miterlimit="10" stroke-linecap="round" stroke-linejoin="round"/>
<path id="Vector_4" d="M12.5 10.6667H28.5" stroke="#9E581C" stroke-width="1.5" stroke-miterlimit="10" stroke-linecap="round" stroke-linejoin="round"/>
</g>
</g>
</svg>
